Coordinates
version=1
nRows=14
nColumns=36
inDegrees=yes

Units are S.I. units (second, meters, Newtons, ...)
If the header above contains a line with 'inDegrees', this indicates whether rotational values are in degrees (yes) or radians (no).

endheader
time	pelvis_tilt	pelvis_list	pelvis_rotation	pelvis_tx	pelvis_ty	pelvis_tz	hip_flexion_r	hip_adduction_r	hip_rotation_r	knee_angle_r	knee_angle_r_beta	ankle_angle_r	subtalar_angle_r	mtp_angle_r	hip_flexion_l	hip_adduction_l	hip_rotation_l	knee_angle_l	knee_angle_l_beta	ankle_angle_l	subtalar_angle_l	mtp_angle_l	lumbar_extension	lumbar_bending	lumbar_rotation	arm_flex_r	arm_add_r	arm_rot_r	elbow_flex_r	pro_sup_r	arm_flex_l	arm_add_l	arm_rot_l	elbow_flex_l	pro_sup_l
      0.00000000	      5.34440310	      4.83697379	     -9.79381078	     -0.10563916	      0.90044618	      0.22827001	      0.99440217	      2.79402018	      1.01840002	     14.83730167	      0.25895977	      3.09081175	     -1.32961331	     -8.40865136	     23.31595001	     -1.39881053	     -6.35271457	     20.90904570	      0.36493169	      5.68820641	      1.56358990	     -8.40865136	     -6.34143958	      3.73281480	     -0.66466436	     33.19188013	      6.90885464	     62.89245623	    130.06696639	    106.76867407	     33.27603875	     13.09076200	     40.87723308	    123.52577617	    104.33966466
      0.01666670	      4.90891644	      5.77689087	    -11.35872820	     -0.10248676	      0.89539781	      0.22833199	      1.75666641	      1.30126755	      3.68299117	     14.11111583	      0.24628543	      6.26901957	     -1.06996629	     -8.32790973	     22.56887195	     -0.74744016	     -6.49615427	     19.41862758	      0.33891899	      6.90932228	      3.12248874	     -8.32790973	     -4.06397963	      2.74386059	      0.17199694	     34.02264968	      5.75980062	     61.85092811	    130.48970902	    104.12077256	     36.25264239	     11.69161755	     35.56532775	    122.00387361	    101.22484901
      0.03333330	      3.02054620	      6.58022651	    -11.40493533	     -0.09889304	      0.89101234	      0.23049801	      3.22278641	      0.74695008	      2.75526732	     13.58015252	      0.23701837	      7.19584053	     -0.77348284	     -8.25665059	     24.05356062	     -0.13914515	     -6.89881627	     18.70771728	      0.32651126	      6.27596173	      3.12675127	     -8.25665059	     -1.43865945	      2.03316163	      0.58118454	     32.31704440	      4.81147768	     64.20627202	    132.67651097	    102.68868544	     37.24353954	     10.46827500	     31.44961882	    121.28649801	     99.00166426
      0.05000000	      2.32581076	      6.92760498	    -10.99170288	     -0.09828554	      0.89256791	      0.23145927	      3.46893607	      0.51117321	      2.56021559	     13.33636230	      0.23276343	      8.77220917	      0.47367284	     -8.24199444	     24.37765085	      0.27017106	     -6.25069842	     19.18747024	      0.33488453	      6.98902682	      3.14793855	     -8.24199444	     -0.49855675	      1.56263054	      0.56861165	     31.53622451	      4.34316004	     67.10848747	    134.20605205	    103.21109361	     38.94879559	      9.75418280	     27.75083729	    120.09147033	     98.39018203
      0.06666670	      1.87520475	      7.11772730	    -10.37999663	     -0.09780125	      0.89437884	      0.23233817	      3.94369293	      0.47653381	      2.26534644	     13.67550345	      0.23868256	      9.50372885	      1.21537938	     -8.23109521	     24.71902143	      0.67455185	     -5.68645542	     20.19470653	      0.35246412	      6.91590287	      2.76822682	     -8.23109521	      0.02853198	      1.44763263	      0.33400035	     30.56531009	      4.20769555	     68.93048679	    134.56443785	    103.58165156	     41.29061100	      8.57096583	     24.13998775	    118.24040196	     97.75274003
      0.08333330	      1.68036126	      7.31380674	     -9.81331531	     -0.09527813	      0.89501646	      0.23217142	      3.96301019	      0.27513718	      1.80819777	     13.69988827	      0.23910816	      9.50931926	      2.12883346	     -8.14175451	     24.37867513	      1.23986448	     -5.08689545	     20.10240116	      0.35085309	      6.82058631	      2.49527269	     -8.14175451	      0.74442695	      1.30159392	      0.15717596	     30.29473645	      4.16837853	     68.83947923	    132.92407866	    102.34530390	     42.37448144	      7.65900461	     19.95316540	    115.94492446	     94.64570042
      0.10000000	      1.35073011	      7.44717576	     -9.28066447	     -0.09520273	      0.89373163	      0.23167235	      4.18784617	      0.16842986	      1.61102307	     13.54350551	      0.23637876	      9.24045095	      2.19440644	     -8.02639380	     24.28676976	      1.65461185	     -4.75019423	     19.78173490	      0.34525641	      7.06129640	      2.36311244	     -8.02639380	      1.60723398	      1.29953740	      0.14556605	     30.75806309	      4.70288842	     66.00429775	    129.07353493	     97.75831399	     43.31646264	      6.97098445	     15.92407865	    113.86631159	     90.43765848
      0.11666670	      1.37435315	      7.48081015	     -8.67830159	     -0.09432973	      0.89607826	      0.23215152	      3.74935166	      0.08619057	      0.90700135	     12.88997925	      0.22497258	      9.04763096	      2.92452557	     -7.88570783	     23.69772366	      2.04954896	     -4.22244608	     19.34384428	      0.33761377	      7.15409102	      2.16988947	     -7.88570783	      2.23216504	      1.50883832	      0.45048775	     31.23248041	      5.42726925	     62.25317792	    124.45564055	    102.08280526	     44.15922784	      6.50717156	     11.67720304	    110.17558664	     86.47288565
      0.13333330	      1.22198171	      7.55254492	     -8.25823818	     -0.09435561	      0.89825637	      0.23250209	      3.39807947	      0.04046413	      0.45366531	     12.11496463	      0.21144602	      8.64392038	      3.36392784	     -7.82922146	     23.34283704	      2.39125884	     -3.81805774	     18.93873535	      0.33054329	      6.85507869	      2.31342159	     -7.82922146	      2.88009455	      1.57166889	      1.09776510	     31.34952942	      5.99770110	     59.88512180	    121.06842766	    100.39196386	     44.99863161	      6.62813233	      7.71864747	    106.79225327	     83.89554203
      0.15000000	      1.26443741	      7.57719190	     -7.97404851	     -0.09344874	      0.89672577	      0.23275600	      2.85875953	      0.05334842	      0.10598309	     11.30086355	      0.19723728	      8.93790442	      3.43081388	     -7.80591922	     22.84043058	      2.59613659	     -3.64119581	     18.53764558	      0.32354295	      7.19700547	      2.65954964	     -7.80591922	      3.23614383	      1.69341205	      1.64674317	     31.58644986	      6.48016475	     58.38296998	    118.42541964	     99.81609063	     45.64646087	      6.86594657	      3.48804296	    102.98238885	     82.33821997
      0.16666670	      1.44809404	      7.40858610	     -7.70234395	     -0.09525439	      0.89741182	      0.23273687	      2.46072661	      0.24005501	     -0.43073342	     10.78939198	      0.18831041	      9.13294794	      3.80745971	     -7.78130479	     22.37119687	      2.60988449	     -3.26903498	     18.42368008	      0.32155388	      7.48716782	      3.00827711	     -7.78130479	      3.18423811	      1.95799618	      2.06161225	     31.71207182	      6.74638960	     57.34097244	    116.02854023	     99.32212194	     46.38445802	      7.32124164	     -0.31695168	     99.13393965	     80.27550131
      0.18333330	      1.59837657	      7.47550668	     -7.37756201	     -0.09545832	      0.89722743	      0.23328031	      2.19184638	      0.22122222	     -0.76798383	     10.51408497	      0.18350540	      9.32222985	      3.66439154	     -7.75228707	     22.03520909	      2.82493709	     -2.77789237	     18.55603509	      0.32386391	      7.83866109	      3.19839968	     -7.75228707	      3.17244440	      1.97005085	      2.27444707	     31.81699660	      7.00143109	     56.24350645	    113.95052502	     97.87503630	     47.22681384	      7.51501560	     -3.55905635	     95.69416276	     78.10451370
      0.20000000	      1.91240168	      7.51262583	     -7.13162136	     -0.09334416	      0.89786761	      0.23354597	      1.41518096	      0.19850859	     -1.32676936	      9.98530953	      0.17427653	      9.35353762	      3.82727627	     -7.72369768	     21.48116351	      2.95173263	     -2.62165372	     18.50036939	      0.32289236	      8.13326516	      3.42683781	     -7.72369768	      3.26549392	      1.95638179	      2.62513035	     31.47521811	      7.15059026	     55.71130598	    112.67680198	     96.89638223	     47.66668418	      8.00272277	     -6.10070098	     92.87294832	     75.82911133
      0.21666670	      1.98276202	      7.57556604	     -7.02695181	     -0.09326892	      0.89644916	      0.23332461	      1.31771473	      0.14789056	     -1.69293855	     10.14318251	      0.17703193	      9.63316000	      3.53858960	     -7.70055767	     21.32131804	      3.06392250	     -2.49600273	     18.86472908	      0.32925163	      8.64897275	      3.47435094	     -7.70055767	      3.47205308	      1.88866351	      2.69115393	     30.97016888	      7.25781362	     55.57185616	    112.83476223	     95.30897363	     47.77812277	      8.47847245	     -8.20365970	     91.72710410	     74.14497693
